<?xml version="1.0" encoding="UTF-8"?>
<svg width="180px" height="22px" viewBox="0 0 180 22" version="1.1" xmlns="http://www.w3.org/2000/svg" xmlns:xlink="http://www.w3.org/1999/xlink">
    <!-- Generator: Sketch 64 (93537) - https://sketch.com -->
    <title>Blackbullion_Logo_White</title>
    <desc>Created with Sketch.</desc>
    <g id="Blackbullion" stroke="none" stroke-width="1" fill="none" fill-rule="evenodd">
        <g id="logo-/-left-/-white">
            <g id="Logo" transform="translate(0.000000, 0.000000)">
                <path d="M36.5360541,14.9287838 C36.5360541,13.1930135 35.2756622,11.8972432 33.5607027,11.8972432 C31.8458919,11.8972432 30.5853514,13.1930135 30.5853514,14.9287838 C30.5853514,16.6502838 31.8458919,17.9459054 33.5607027,17.9459054 C35.2651081,17.9459054 36.5360541,16.6502838 36.5360541,14.9287838 Z M34.1731351,7.85801351 C38.2657297,7.85801351 41.1565,10.7981351 41.1565,14.9287838 C41.1565,19.0594324 38.2657297,21.9998514 34.1731351,21.9998514 C32.6219865,21.9998514 31.2437162,21.4797297 30.1636351,20.5775811 L29.7319595,21.5644595 L26.3442568,21.5644595 L26.3442568,0.36077027 L30.8701622,0.36077027 L30.8701622,8.77443243 C31.8215135,8.18682432 32.9439595,7.85816216 34.1731351,7.85816216 L34.1731351,7.85801351 L34.1731351,7.85801351 Z" id="Fill-1" fill="#FFFFFF"></path>
                <polygon id="Fill-2" fill="#FFFFFF" points="42.7613108 21.5644595 47.3396892 21.5644595 47.3396892 0.36077027 42.7613108 0.36077027"></polygon>
                <path d="M59.5204054,14.9149595 C59.5204054,13.1898919 58.2600135,11.893973 56.5452027,11.893973 C54.8198378,11.893973 53.5697027,13.1898919 53.5697027,14.9149595 C53.5697027,16.6507297 54.8300946,17.9465 56.5452027,17.9465 C58.2600135,17.9465 59.5204054,16.6507297 59.5204054,14.9149595 Z M63.8749189,8.25891892 L63.8749189,21.5503378 L60.3357432,21.5503378 L59.9436081,20.6104324 C58.8552027,21.4920676 57.4767838,22 55.9329189,22 C51.8687162,22 48.9636757,19.0350541 48.9636757,14.9044054 C48.9636757,10.788027 51.8687162,7.85816216 55.9329189,7.85816216 C57.4984865,7.85816216 58.8966757,8.38095946 59.9942973,9.28652703 L60.4625405,8.25862162 L63.8749189,8.25891892 L63.8749189,8.25891892 Z" id="Fill-3" fill="#FFFFFF"></path>
                <path d="M72.8430405,21.9995541 C68.5805405,21.9995541 65.5038108,19.0132027 65.5038108,14.9003919 C65.5038108,10.7877297 68.5662703,7.85801351 72.8573108,7.85801351 C76.5927027,7.85801351 79.3941351,10.2126081 79.8946351,13.7483649 L75.4351757,13.7483649 C75.050027,12.6638243 74.0363919,11.9602703 72.8428919,11.9602703 C71.2342162,11.9602703 70.0891757,13.1829054 70.0891757,14.9146622 C70.0891757,16.6465676 71.2483378,17.8974459 72.8428919,17.8974459 C74.0713243,17.8974459 75.0671216,17.1449865 75.4451351,15.9583243 L79.9436892,15.9583243 C79.4257973,19.5676622 76.5857162,22 72.8428919,22 L72.8430405,21.9995541" id="Fill-4" fill="#FFFFFF"></path>
                <path d="M108.437554,14.9287838 C108.437554,13.1930135 107.177162,11.8972432 105.462351,11.8972432 C103.747541,11.8972432 102.487,13.1930135 102.487,14.9287838 C102.487,16.6502838 103.747541,17.9459054 105.462351,17.9459054 C107.166608,17.9459054 108.437554,16.6502838 108.437554,14.9287838 Z M106.074784,7.85801351 C110.16723,7.85801351 113.058,10.7981351 113.058,14.9287838 C113.058,19.0594324 110.16723,21.9998514 106.074784,21.9998514 C104.523486,21.9998514 103.145216,21.4797297 102.065284,20.5775811 L101.633608,21.5644595 L98.2457568,21.5644595 L98.2457568,0.36077027 L102.771662,0.36077027 L102.771662,8.77443243 C103.723014,8.18682432 104.845459,7.85816216 106.074784,7.85816216 L106.074784,7.85801351 L106.074784,7.85801351 Z" id="Fill-5" fill="#FFFFFF"></path>
                <path d="M114.490676,15.8582838 L114.490676,8.27289189 L119.068905,8.27289189 L119.068905,15.6593919 C119.068905,17.0623378 119.823,17.8873378 121.046378,17.8873378 C122.269459,17.8873378 123.009284,17.0483649 123.009284,15.6593919 L123.009284,8.27289189 L127.587514,8.27289189 L127.587514,15.8582838 C127.587514,19.5776216 124.972635,22 121.046378,22 C117.119824,22 114.490676,19.5776216 114.490676,15.8582838" id="Fill-6" fill="#FFFFFF"></path>
                <polygon id="Fill-7" fill="#FFFFFF" points="129.752581 21.5644595 134.330959 21.5644595 134.330959 0.36077027 129.752581 0.36077027"></polygon>
                <polygon id="Fill-8" fill="#FFFFFF" points="136.718108 21.5644595 141.296338 21.5644595 141.296338 0.36077027 136.718108 0.36077027"></polygon>
                <path d="M157.326757,17.8876351 C158.996081,17.8876351 160.194189,16.6762973 160.194189,14.9191216 C160.194189,13.1722027 158.996081,11.9504595 157.326757,11.9504595 C155.657432,11.9504595 154.460811,13.1616486 154.460811,14.9188243 C154.460811,16.6761486 155.657432,17.8873378 157.326757,17.8873378 L157.326757,17.8876351 Z M149.875,14.9186757 C149.875,10.7984324 152.993649,7.83735135 157.326757,7.83735135 C161.646486,7.83735135 164.78,10.7984324 164.78,14.9186757 C164.78,19.0247973 161.646486,22 157.326757,22 C152.993649,22 149.875,19.0247973 149.875,14.9186757 L149.875,14.9186757 Z" id="Fill-9" fill="#FFFFFF"></path>
                <path d="M179.381757,13.9789189 L179.381757,21.5644595 L174.803378,21.5644595 L174.803378,14.1781081 C174.803378,12.7750135 174.048243,11.9498649 172.824865,11.9498649 C171.602973,11.9498649 170.862703,12.7889865 170.862703,14.1781081 L170.862703,21.5644595 L166.284324,21.5644595 L166.284324,13.9789189 C166.284324,10.2597297 168.899054,7.8372027 172.824865,7.8372027 C176.752162,7.8372027 179.381757,10.2597297 179.381757,13.9789189" id="Fill-10" fill="#FFFFFF"></path>
                <polyline id="Fill-11" fill="#FFFFFF" points="86.1460541 0.360472973 86.1460541 13.1849865 91.1821216 8.28002703 97.5181216 8.28002703 90.7702162 14.5134595 97.7192432 21.5644595 91.2302838 21.5644595 86.1460541 16.2248514 86.1460541 21.5644595 81.5700541 21.5644595 81.5700541 0.360472973 86.1460541 0.360472973"></polyline>
                <polygon id="Fill-12" fill="#FFFFFF" points="143.68423 21.5640135 148.262162 21.5640135 148.262162 8.27259459 143.68423 8.27259459"></polygon>
                <path d="M148.568676,2.73037838 C148.568676,4.16394595 147.406689,5.32593243 145.973122,5.32593243 C144.539703,5.32593243 143.377716,4.16394595 143.377716,2.73037838 C143.377716,1.29695946 144.539703,0.134972973 145.973122,0.134972973 C147.406689,0.134972973 148.568676,1.29695946 148.568676,2.73037838" id="Fill-13" fill="#FFFFFF"></path>
                <polyline id="Fill-14" fill="#9F7BCE" points="18.3643514 3.67801351 12.6159595 6.99689189 12.6159595 0.358986486 8.03758108 0.358986486 8.03758108 6.99689189 2.28918919 3.67801351 0 7.64277027 5.74854054 10.9617973 0 14.2806757 2.28918919 18.2454324 8.03758108 14.9265541 8.03758108 21.5644595 12.6159595 21.5644595 12.6159595 14.9265541 18.3643514 18.2454324 20.6535405 14.2806757 14.905 10.9617973 20.6535405 7.64277027 18.3643514 3.67801351"></polyline>
            </g>
        </g>
    </g>
</svg>